<svg width="24" height="24" viewBox="0 0 24 24" fill="none" xmlns="http://www.w3.org/2000/svg">
<path d="M7.05086 19.4102H6V9.59939L11.1771 2.23311C11.4656 1.82339 11.8834 1.52253 12.3634 1.3789C12.8434 1.23527 13.3578 1.2572 13.8238 1.44117C14.2899 1.62514 14.6806 1.96046 14.9331 2.39325C15.1856 2.82603 15.2852 3.33114 15.216 3.82739L14.8286 6.61825H18.24C19.7314 6.61825 22.716 8.10968 22.716 11.0925C22.716 14.0754 19.716 20.9017 16.5429 20.9017C12.3651 20.9017 8.79257 19.9074 7.05257 19.4102H7.05086Z" stroke="black" stroke-width="1.71429" stroke-linecap="round" stroke-linejoin="round"/>
<path d="M1.28516 9.21456C1.28516 7.91171 2.34116 6.85742 3.6423 6.85742C4.94516 6.85742 5.99944 7.91342 5.99944 9.21456V19.0717C5.99944 20.3746 4.94344 21.4289 3.6423 21.4289C2.33944 21.4289 1.28516 20.3728 1.28516 19.0717V9.21456Z" stroke="black" stroke-width="1.71429" stroke-linecap="round" stroke-linejoin="round"/>
</svg>
