<svg width="100" height="100" viewBox="0 0 100 100" fill="none" xmlns="http://www.w3.org/2000/svg">
<rect width="100" height="100" rx="50" fill="white"/>
<path d="M58.63 77L37.466 49.768L57.964 24.756H72.32L49.232 51.914V47.178L73.06 77H58.63ZM27.032 77V24.756H38.65V77H27.032ZM85.2758 77.814C83.3518 77.814 81.7484 77.148 80.4658 75.816C79.1831 74.484 78.5418 72.8807 78.5418 71.006C78.5418 69.0327 79.1831 67.4047 80.4658 66.122C81.7484 64.79 83.3518 64.124 85.2758 64.124C87.2491 64.124 88.8524 64.79 90.0858 66.122C91.3684 67.4047 92.0098 69.0327 92.0098 71.006C92.0098 72.8807 91.3684 74.484 90.0858 75.816C88.8524 77.148 87.2491 77.814 85.2758 77.814Z" fill="#111111"/>
</svg>
