<svg width="24" height="24" viewBox="0 0 24 24" fill="none" xmlns="http://www.w3.org/2000/svg">
<g clip-path="url(#clip0_1019_22)">
<path d="M0.863328 21.8491C0.650948 21.8497 0.446229 21.7698 0.290375 21.6256C0.134522 21.4813 0.0391045 21.2833 0.0233284 21.0715C0.000528416 20.8111 -0.439872 14.6479 3.28013 10.6207C5.15213 8.59274 7.72013 7.48634 10.9385 7.32434V4.63394C10.9389 4.16511 11.0723 3.70602 11.3234 3.31008C11.5744 2.91414 11.9328 2.59763 12.3567 2.39737C12.7806 2.19711 13.2526 2.12134 13.7179 2.17887C14.1832 2.2364 14.6226 2.42486 14.9849 2.72234L22.9421 9.26354C23.2727 9.53493 23.539 9.87625 23.7219 10.2629C23.9047 10.6496 23.9996 11.072 23.9996 11.4997C23.9996 11.9275 23.9047 12.3499 23.7219 12.7365C23.539 13.1232 23.2727 13.4645 22.9421 13.7359L14.9849 20.2807C14.622 20.5787 14.1819 20.7672 13.7158 20.8245C13.2498 20.8817 12.7771 20.8052 12.3529 20.6039C11.9287 20.4026 11.5704 20.0849 11.32 19.6877C11.0696 19.2905 10.9373 18.8303 10.9385 18.3607V15.7099C2.15093 16.0003 1.71653 20.8423 1.69853 21.0547C1.687 21.2673 1.59522 21.4675 1.44175 21.6149C1.28827 21.7624 1.08454 21.8461 0.871728 21.8491H0.863328ZM11.7833 14.0167C12.0061 14.0167 12.2198 14.1052 12.3773 14.2628C12.5348 14.4203 12.6233 14.634 12.6233 14.8567V18.3607C12.6225 18.5114 12.6646 18.6593 12.7447 18.7869C12.8248 18.9146 12.9395 19.0169 13.0755 19.0818C13.2115 19.1467 13.3632 19.1716 13.5128 19.1536C13.6624 19.1356 13.8038 19.0753 13.9205 18.9799L21.8789 12.4387C22.0174 12.3246 22.129 12.1812 22.2056 12.0188C22.2821 11.8565 22.3219 11.6792 22.3219 11.4997C22.3219 11.3202 22.2821 11.143 22.2056 10.9806C22.129 10.8183 22.0174 10.6749 21.8789 10.5607L13.9205 4.01954C13.8042 3.92368 13.663 3.86289 13.5134 3.84428C13.3639 3.82566 13.2121 3.84999 13.0758 3.91441C12.9395 3.97883 12.8244 4.0807 12.7439 4.2081C12.6633 4.33551 12.6207 4.48321 12.6209 4.63394V8.14394C12.6209 8.36672 12.5324 8.58038 12.3749 8.73791C12.2174 8.89544 12.0037 8.98394 11.7809 8.98394C8.66093 8.98394 6.22373 9.91634 4.52333 11.7535C3.07013 13.3231 2.35373 15.3343 2.00333 17.0743C4.05413 15.0439 7.34093 14.0167 11.7785 14.0167H11.7833Z" fill="black"/>
</g>
<defs>
<clipPath id="clip0_1019_22">
<rect width="24" height="24" fill="white"/>
</clipPath>
</defs>
</svg>
